<svg version="1.1" id="Layer_1" xmlns="http://www.w3.org/2000/svg" xmlns:xlink="http://www.w3.org/1999/xlink" x="0px" y="0px"
	 width="100%" viewBox="0 0 1024 1024" enable-background="new 0 0 1024 1024" xml:space="preserve">
<path fill="#0268D1" opacity="1.000000" stroke="none" 
	d="
M547.000000,1025.000000 
	C364.666656,1025.000000 182.833328,1025.000000 1.000000,1025.000000 
	C1.000000,683.666687 1.000000,342.333344 1.000000,1.000000 
	C342.333344,1.000000 683.666687,1.000000 1025.000000,1.000000 
	C1025.000000,342.333344 1025.000000,683.666687 1025.000000,1025.000000 
	C865.833313,1025.000000 706.666687,1025.000000 547.000000,1025.000000 
M96.306458,602.155762 
	C98.680107,611.687683 100.776329,621.299011 103.474922,630.737976 
	C115.834274,673.967651 133.914215,714.628418 159.060745,751.980774 
	C179.247208,781.965515 203.073914,808.810730 230.163132,832.751770 
	C262.327179,861.177856 297.796844,884.408630 336.979401,902.136169 
	C384.906799,923.820312 435.192993,935.762024 487.499695,938.717041 
	C519.604065,940.530762 551.748230,938.907104 583.581787,933.761414 
	C635.123657,925.429932 683.373840,907.772339 728.473511,881.595459 
	C772.525513,856.026672 811.168213,823.948730 843.179932,784.192932 
	C860.768738,762.349304 876.515320,739.192322 889.203979,714.149841 
	C901.406006,690.067932 911.908936,665.276672 919.967590,639.401245 
	C931.880737,601.149597 938.277039,562.020813 939.743652,522.123047 
	C940.297852,507.046692 939.048645,491.863800 937.968018,476.776276 
	C935.987915,449.130096 930.759216,422.007233 922.920654,395.443817 
	C912.983093,361.767456 899.144897,329.758881 881.724182,299.213440 
	C857.178284,256.174652 825.585266,218.966003 788.026672,187.047623 
	C750.000305,154.731659 706.932434,130.686493 659.903625,113.722908 
	C601.125793,92.521370 540.766052,83.723770 478.365417,88.811020 
	C453.729614,90.819466 429.542725,94.870697 405.639557,101.046967 
	C367.340302,110.943008 331.088470,125.682266 296.835754,145.529770 
	C248.188980,173.717758 206.926544,210.196091 173.273026,255.152771 
	C141.189850,298.011658 118.227722,345.479156 103.269524,396.856232 
	C93.826225,429.291260 88.424553,462.405884 87.075104,496.128387 
	C85.657745,531.548157 89.072273,566.607605 96.306458,602.155762 
z"/>
<path fill="#1486F9" opacity="1.000000" stroke="none" 
	d="
M96.220459,601.740601 
	C89.072273,566.607605 85.657745,531.548157 87.075104,496.128387 
	C88.424553,462.405884 93.826225,429.291260 103.269524,396.856232 
	C118.227722,345.479156 141.189850,298.011658 173.273026,255.152771 
	C206.926544,210.196091 248.188980,173.717758 296.835754,145.529770 
	C331.088470,125.682266 367.340302,110.943008 405.639557,101.046967 
	C429.542725,94.870697 453.729614,90.819466 478.365417,88.811020 
	C540.766052,83.723770 601.125793,92.521370 659.903625,113.722908 
	C706.932434,130.686493 750.000305,154.731659 788.026672,187.047623 
	C825.585266,218.966003 857.178284,256.174652 881.724182,299.213440 
	C899.144897,329.758881 912.983093,361.767456 922.920654,395.443817 
	C930.759216,422.007233 935.987915,449.130096 937.968018,476.776276 
	C939.048645,491.863800 940.297852,507.046692 939.743652,522.123047 
	C938.277039,562.020813 931.880737,601.149597 919.967590,639.401245 
	C911.908936,665.276672 901.406006,690.067932 889.203979,714.149841 
	C876.515320,739.192322 860.768738,762.349304 843.179932,784.192932 
	C811.168213,823.948730 772.525513,856.026672 728.473511,881.595459 
	C683.373840,907.772339 635.123657,925.429932 583.581787,933.761414 
	C551.748230,938.907104 519.604065,940.530762 487.499695,938.717041 
	C435.192993,935.762024 384.906799,923.820312 336.979401,902.136169 
	C297.796844,884.408630 262.327179,861.177856 230.163132,832.751770 
	C203.073914,808.810730 179.247208,781.965515 159.060745,751.980774 
	C133.914215,714.628418 115.834274,673.967651 103.474922,630.737976 
	C100.776329,621.299011 98.680107,611.687683 96.220459,601.740601 
M328.951172,503.953339 
	C328.951172,503.953339 328.749451,503.949158 329.190887,503.583801 
	C329.427612,503.284760 329.664337,502.985718 329.895935,502.925079 
	C329.895935,502.925079 329.657684,502.916321 330.145844,502.532928 
	C330.423035,501.994934 330.700226,501.456940 331.102661,500.468445 
	C331.277649,500.184998 331.529053,500.013641 332.275177,499.615509 
	C332.500977,499.335602 332.726776,499.055664 332.963654,498.961273 
	C332.963654,498.961273 332.778107,498.970764 333.190430,498.569153 
	C333.394226,498.244843 333.598022,497.920563 333.789520,497.841125 
	C333.789520,497.841125 333.545105,497.821472 334.069946,497.477417 
	C334.351440,496.939026 334.632904,496.400635 334.942474,495.959717 
	C334.942474,495.959717 334.844482,495.985870 335.234344,495.576752 
	C335.423950,495.251343 335.613586,494.925934 335.791229,494.850128 
	C335.791229,494.850128 335.542053,494.831024 336.066162,494.477142 
	C336.342773,493.931519 336.619354,493.385864 336.919861,492.954590 
	C336.919861,492.954590 336.805023,492.975891 337.242706,492.552399 
	C337.477570,492.002441 337.712433,491.452484 337.969788,490.968719 
	C337.969788,490.968719 337.902069,490.986084 338.309540,490.569275 
	C338.537445,490.040253 338.765320,489.511230 339.004791,488.996887 
	C339.004791,488.996887 338.988251,488.997803 339.329529,488.587189 
	C339.481506,488.264679 339.633484,487.942200 339.767334,487.807098 
	C339.767334,487.807098 339.580963,487.780518 340.271667,487.522308 
	C341.137970,485.290680 342.004303,483.059021 342.887939,480.915924 
	C342.887939,480.915924 342.798737,480.929321 343.423279,480.578217 
	C344.197388,479.149689 345.221680,477.801208 345.708405,476.280701 
	C354.352905,449.274841 351.926514,422.633026 342.850739,396.259827 
	C342.466888,395.144440 341.244690,394.317596 340.553162,393.209534 
	C340.553162,393.209534 340.461670,393.390686 340.653900,392.593292 
	C339.305573,389.793671 337.957245,386.994080 336.727448,384.186401 
	C336.727448,384.186401 336.726349,384.305267 336.684052,383.661560 
	C336.342377,383.131531 336.000702,382.601501 335.870819,382.087311 
	C335.870819,382.087311 335.850586,382.298737 335.653442,381.825775 
	C335.459442,381.546875 335.265411,381.268005 334.898651,380.664154 
	C334.898651,380.664154 334.902985,380.296173 334.775848,379.650635 
	C334.387756,379.131897 333.999634,378.613159 333.775604,378.120453 
	C333.775604,378.120453 333.742432,378.283234 333.795471,377.576904 
	C333.168488,376.732697 332.541504,375.888489 331.982330,375.036133 
	C331.982330,375.036133 331.947968,375.095184 331.808899,374.502930 
	C331.458527,374.015808 331.108154,373.528687 330.937073,373.052368 
	C330.937073,373.052368 330.923950,373.231537 330.675842,372.781403 
	C330.459747,372.517548 330.243622,372.253723 329.824554,371.811035 
	C329.824554,371.811035 329.869568,371.544312 329.808990,370.764343 
	C328.158936,368.537964 326.508911,366.311554 324.932190,364.071167 
	C324.932190,364.071167 324.905151,364.140747 324.899139,363.408966 
	C323.887177,362.300262 322.875244,361.191528 321.934296,360.071716 
	C321.934296,360.071716 321.915161,360.140991 321.746674,359.565002 
	C321.295105,359.213318 320.843536,358.861603 320.491302,358.465820 
	C320.491302,358.465820 320.517975,358.571198 320.323608,358.032166 
	C320.061035,357.759216 319.798492,357.486267 319.682190,357.247162 
	C319.682190,357.247162 319.637360,357.390442 319.604767,356.733490 
	C319.002472,356.200928 318.400177,355.668365 317.927002,355.106201 
	C317.927002,355.106201 317.953094,355.236084 317.617554,354.795227 
	C317.341675,354.553131 317.065826,354.311035 316.205566,353.786072 
	C314.116302,351.589600 312.027008,349.393097 309.602570,346.760101 
	C309.324097,346.519989 309.045624,346.279846 308.900970,346.072784 
	C308.900970,346.072784 308.864532,346.205719 308.697754,345.568542 
	C307.992462,345.179962 307.287170,344.791351 306.737976,344.363770 
	C306.737976,344.363770 306.764404,344.522522 306.444092,343.973419 
	C305.911865,343.666473 305.379639,343.359497 304.409698,342.953766 
	C304.116943,342.804138 303.954224,342.565735 303.526398,341.824738 
	C303.197174,341.629059 302.867950,341.433350 302.789795,341.286896 
	C302.789795,341.286896 302.731262,341.535950 302.428528,340.985779 
	C301.899811,340.690826 301.371094,340.395905 300.912598,340.082642 
	C300.912598,340.082642 300.903809,340.154663 300.826782,339.650787 
	C300.221985,339.414764 299.617218,339.178741 298.334839,338.795471 
	C297.210022,338.097412 296.113739,337.347565 294.956177,336.708862 
	C264.000763,319.627838 227.762192,327.206024 211.730774,363.000275 
	C203.290833,381.844635 201.684418,401.565704 203.908890,421.889191 
	C207.404953,453.830444 220.218643,481.085693 244.295914,502.579437 
	C260.122101,516.707397 278.393555,523.959717 300.640808,520.504761 
	C304.171478,521.153809 307.357208,520.840088 309.504791,517.238892 
	C309.504791,517.238892 309.642426,517.313477 310.382751,517.565552 
	C311.906433,516.679993 313.430145,515.794495 314.961609,514.976929 
	C314.961609,514.976929 314.900574,514.946106 315.493042,514.813416 
	C315.984863,514.471741 316.476685,514.130066 316.947510,513.908508 
	C316.947510,513.908508 316.827972,513.884583 317.438843,513.746765 
	C317.881500,513.326355 318.324158,512.905884 318.805511,512.728882 
	C318.805511,512.728882 318.560730,512.758545 319.084229,512.521118 
	C319.384186,512.285339 319.684113,512.049500 319.949738,511.924988 
	C319.949738,511.924988 319.839294,511.888153 320.553741,511.862274 
	C321.233887,511.094727 321.914001,510.327209 322.981354,509.818024 
	C322.981354,509.818024 322.581421,509.581116 323.240845,509.574829 
	C323.782776,508.982178 324.324677,508.389496 324.900574,507.927246 
	C324.900574,507.927246 324.769318,507.957825 325.209412,507.626373 
	C325.452393,507.353973 325.695343,507.081573 326.126831,506.297302 
	C326.677490,505.841064 327.228119,505.384827 328.223541,504.594543 
	C328.466827,504.313568 328.710114,504.032593 328.951172,503.953339 
M664.252930,824.679871 
	C665.140930,824.309753 666.028931,823.939697 667.564758,823.080872 
	C687.450439,817.109558 705.051453,807.044128 719.802246,792.496521 
	C745.322937,767.327515 758.883484,736.310486 763.819824,700.605713 
	C764.200806,699.730469 764.906067,698.857605 764.912476,697.979614 
	C764.975342,689.380859 765.147339,680.771667 764.781189,672.187073 
	C764.649719,669.105042 763.141663,666.081665 762.021484,662.212830 
	C761.521362,659.281067 761.119385,656.328552 760.506226,653.420593 
	C752.859314,617.158081 733.092651,588.385315 705.468872,564.478455 
	C693.643677,554.244446 680.643860,545.061157 670.297729,533.502808 
	C657.506104,519.212341 646.274048,503.382812 635.533997,487.433167 
	C620.158264,464.599152 602.550781,444.471069 577.435364,432.049316 
	C547.066345,417.029266 515.433411,411.086823 481.939453,419.081177 
	C454.610260,425.604126 430.680939,438.313599 412.152832,459.671936 
	C402.815796,470.435272 394.286835,482.020874 386.423523,493.916229 
	C369.964233,518.815369 351.091919,541.173462 326.913147,559.134338 
	C306.822205,574.058594 290.527039,592.746094 279.092255,615.260010 
	C262.638367,647.656311 258.233917,681.885254 265.295593,717.333679 
	C270.432983,743.122498 281.708740,766.282288 299.507477,785.862305 
	C323.496429,812.252197 353.826019,825.862000 389.446838,829.882324 
	C390.996216,830.256104 392.541138,830.928528 394.095764,830.951782 
	C400.722931,831.050903 407.352905,830.958008 414.829468,830.936584 
	C418.944916,830.442566 423.132141,830.276489 427.162689,829.394409 
	C440.466431,826.482910 453.700165,823.253601 466.985352,820.255005 
	C488.515625,815.395630 510.252808,813.632874 532.283997,815.836121 
	C537.145752,816.322327 542.083923,816.045532 547.791687,816.006714 
	C558.898621,818.839600 570.005493,821.672546 581.580872,825.088501 
	C583.247009,825.768433 584.856750,826.755005 586.589294,827.073669 
	C593.115051,828.273804 599.648804,829.550476 606.237488,830.264343 
	C624.392273,832.231445 642.394958,831.131409 660.133606,826.668396 
	C661.470093,826.332153 662.600220,825.175903 663.764404,824.550781 
	C663.764404,824.550781 663.620483,824.475830 664.252930,824.679871 
M675.922852,430.167480 
	C675.682739,438.506714 675.409912,446.845398 675.272278,455.186340 
	C675.262634,455.774048 676.250488,456.378235 676.991272,457.798462 
	C679.790161,467.249725 681.448303,477.236359 685.588501,486.058105 
	C702.154419,521.356079 738.441162,531.414001 771.262634,510.345490 
	C786.404358,500.625793 798.131104,487.531403 806.581726,471.784973 
	C824.697388,438.029205 829.326477,402.676392 815.766785,366.324219 
	C801.177185,327.210724 761.036255,319.012909 730.370422,337.192535 
	C715.545532,345.981201 704.786987,358.675140 695.872498,373.138947 
	C685.205750,390.445923 679.355225,409.410126 675.922852,430.167480 
M535.168335,280.934204 
	C532.081177,289.142395 532.441223,297.531708 534.006226,306.730591 
	C533.956726,307.495331 533.907288,308.260040 533.467102,309.740417 
	C533.853882,314.331482 534.240723,318.922577 534.320679,323.703125 
	C534.320679,323.703125 534.128113,323.398224 534.088013,324.184784 
	C534.461121,325.692932 534.834229,327.201080 535.754822,329.280975 
	C536.531616,332.825867 537.113464,336.427094 538.117981,339.906219 
	C543.267334,357.739349 551.273865,373.904572 565.893860,386.026093 
	C588.493652,404.763641 622.280212,401.618988 644.493164,380.927704 
	C682.854858,345.194061 695.807129,282.788422 674.781616,234.759811 
	C668.024048,219.323547 658.649597,205.749237 643.721802,196.912079 
	C622.169617,184.153320 594.297913,188.364944 574.156067,207.417084 
	C552.905640,227.517899 541.057556,252.553513 535.168335,280.934204 
M393.546692,191.935120 
	C376.959320,197.255600 365.770782,208.894119 357.034149,223.315292 
	C342.117950,247.936783 338.336151,274.813049 342.048798,302.840088 
	C346.142487,333.743835 358.738556,360.648010 382.282990,381.678131 
	C399.653595,397.193726 420.022095,402.593170 442.317749,395.592285 
	C461.252380,389.646759 472.636169,374.797302 480.891144,357.491302 
	C491.919159,334.371735 493.262726,309.855316 489.917908,285.024078 
	C485.781097,254.312973 472.963470,227.684631 449.880554,206.575134 
	C434.034760,192.084045 415.598175,186.349854 393.546692,191.935120 
z"/>
<path fill="#FFFFFF" opacity="1.000000" stroke="none" 
	d="
M763.160889,700.984375 
	C758.883484,736.310486 745.322937,767.327515 719.802246,792.496521 
	C705.051453,807.044128 687.450439,817.109558 666.967651,823.409790 
	C665.453796,823.984436 664.537170,824.230164 663.620483,824.475830 
	C663.620483,824.475830 663.764404,824.550781 663.381226,824.594482 
	C648.647034,828.182007 634.063660,830.824219 619.312073,829.785950 
	C606.518311,828.885498 593.841125,826.329651 581.112427,824.505493 
	C570.005493,821.672546 558.898621,818.839600 546.979614,815.987488 
	C526.174255,812.824646 505.976807,812.340271 486.116791,815.453308 
	C461.899536,819.249268 437.980347,824.946533 413.469971,829.770996 
	C405.016510,829.566528 397.025360,829.412659 389.034180,829.258789 
	C353.826019,825.862000 323.496429,812.252197 299.507477,785.862305 
	C281.708740,766.282288 270.432983,743.122498 265.295593,717.333679 
	C258.233917,681.885254 262.638367,647.656311 279.092255,615.260010 
	C290.527039,592.746094 306.822205,574.058594 326.913147,559.134338 
	C351.091919,541.173462 369.964233,518.815369 386.423523,493.916229 
	C394.286835,482.020874 402.815796,470.435272 412.152832,459.671936 
	C430.680939,438.313599 454.610260,425.604126 481.939453,419.081177 
	C515.433411,411.086823 547.066345,417.029266 577.435364,432.049316 
	C602.550781,444.471069 620.158264,464.599152 635.533997,487.433167 
	C646.274048,503.382812 657.506104,519.212341 670.297729,533.502808 
	C680.643860,545.061157 693.643677,554.244446 705.468872,564.478455 
	C733.092651,588.385315 752.859314,617.158081 760.506226,653.420593 
	C761.119385,656.328552 761.521362,659.281067 762.140137,663.035034 
	C762.559448,676.232971 762.860168,688.608643 763.160889,700.984375 
M579.915894,490.494080 
	C579.613892,490.306458 579.311829,490.118835 579.005554,489.992523 
	C579.005554,489.992523 579.061584,489.967194 578.768372,489.418915 
	C578.221863,489.121918 577.675293,488.824951 577.184875,488.734192 
	C577.184875,488.734192 577.388489,488.669312 577.060181,488.163086 
	C576.390991,487.740265 575.721863,487.317444 575.043701,486.963837 
	C575.043701,486.963837 575.107849,486.936401 574.767456,486.361389 
	C572.860229,485.210541 570.952942,484.059723 569.038574,482.976257 
	C569.038574,482.976257 569.100769,482.949371 568.758423,482.426208 
	C568.174316,482.211914 567.590149,481.997620 567.036255,481.921051 
	C567.036255,481.921051 567.173462,481.888306 566.849426,481.327606 
	C566.231995,481.138153 565.614563,480.948669 565.038147,480.909698 
	C565.038147,480.909698 565.187866,480.866058 564.831848,480.267761 
	C562.223328,479.209167 559.614746,478.150574 556.604187,476.967987 
	C556.604187,476.967987 556.184143,476.942383 555.828003,476.304565 
	C553.229614,475.467834 550.631287,474.631073 548.063538,473.910370 
	C548.063538,473.910370 548.178711,473.876740 547.652161,473.320740 
	C541.193787,472.143402 534.773193,470.666534 528.269897,469.844818 
	C508.738922,467.377075 489.826294,469.951721 471.678864,477.438843 
	C471.678864,477.438843 471.600281,477.413849 470.961334,477.698914 
	C469.565796,478.442108 468.170258,479.185303 466.364685,479.940735 
	C466.364685,479.940735 465.994202,480.116913 465.456360,480.115570 
	C465.250885,480.401550 465.045441,480.687561 464.988098,480.987579 
	C464.988098,480.987579 465.001587,480.839386 464.371735,480.961060 
	C463.864990,481.278320 463.358276,481.595581 462.964111,481.940643 
	C462.964111,481.940643 462.989990,481.827637 462.367737,481.948700 
	C461.873016,482.278442 461.378296,482.608185 460.968414,482.965668 
	C460.968414,482.965668 460.994934,482.880463 460.415100,483.031860 
	C460.163666,483.324310 459.912231,483.616760 459.939606,483.894440 
	C459.939606,483.894440 459.921539,483.615845 459.293121,483.780640 
	C458.806519,484.152679 458.319916,484.524750 457.955261,484.935150 
	C457.955261,484.935150 457.991547,484.812531 457.394684,484.978546 
	C457.119904,485.261383 456.845093,485.544220 456.863617,485.760559 
	C456.863617,485.760559 456.790436,485.468811 456.193848,485.682465 
	C455.743774,486.090424 455.293701,486.498383 454.914246,486.916534 
	C454.914246,486.916534 454.910461,486.845245 454.377289,486.994324 
	C453.763153,487.401215 453.149048,487.808136 452.356720,488.209076 
	C452.356720,488.209076 452.321686,488.383942 451.880524,488.705627 
	C451.518768,489.092041 451.157013,489.478424 450.869812,489.867096 
	C450.869812,489.867096 450.866730,489.792572 450.313263,489.979309 
	C449.709412,490.467194 449.105560,490.955078 448.463135,491.463562 
	C448.463135,491.463562 448.432007,491.494293 448.136108,491.659821 
	C448.136108,491.659821 447.983704,491.962677 447.346313,492.180847 
	C431.044312,507.385834 419.488434,525.290833 415.267426,547.547546 
	C412.862457,560.228516 416.281952,566.299438 428.149231,567.785278 
	C437.692230,568.980225 447.331451,569.646729 456.947144,569.959900 
	C468.898071,570.349060 471.501282,568.087708 475.114716,556.695007 
	C477.398895,549.493225 480.713959,542.902405 486.954041,538.126404 
	C501.829987,526.740784 520.954285,528.488770 535.083252,536.905029 
	C540.878174,540.356934 543.973450,546.029297 545.017944,552.812744 
	C547.007935,565.736755 542.450562,576.994141 534.647827,586.463867 
	C526.007141,596.950500 515.828613,606.161682 506.444397,616.046570 
	C498.875854,624.018921 492.280304,632.699585 487.898834,643.731384 
	C482.625183,655.752563 482.352173,668.446533 483.136292,681.211975 
	C483.261444,683.249634 484.933258,685.192261 485.928711,687.045715 
	C485.928711,687.045715 485.794952,687.009338 486.008179,687.569580 
	C486.338501,687.777222 486.668823,687.984802 486.956390,688.064575 
	C486.956390,688.064575 486.829346,688.109436 487.235229,688.733582 
	C489.039825,689.489197 490.806030,690.780640 492.655304,690.913269 
	C504.415100,691.756104 516.187683,692.572998 527.969116,692.856995 
	C531.003662,692.930115 534.084961,691.062439 537.039978,690.052856 
	C537.039978,690.052856 537.008179,690.158203 537.572632,689.972595 
	C537.785889,689.650146 537.999146,689.327759 538.009949,689.014587 
	C538.009949,689.014587 538.019836,689.216980 538.567017,688.998108 
	C538.755920,688.663696 538.944885,688.329285 539.033386,688.025940 
	C539.033386,688.025940 539.065613,688.126038 539.619385,687.809387 
	C539.819885,687.209778 540.020386,686.610107 540.084045,686.047363 
	C540.084045,686.047363 540.123596,686.183472 540.733948,685.658081 
	C541.900513,677.109070 543.067078,668.560059 544.081970,660.045227 
	C544.081970,660.045227 544.118774,660.196167 544.636658,659.831238 
	C544.772827,659.222229 544.909058,658.613220 544.991089,658.009338 
	C544.991089,658.009338 545.023804,658.052795 545.525391,657.613525 
	C545.839966,656.771790 546.154480,655.930054 546.159668,655.107239 
	C546.159668,655.107239 546.184082,655.416199 546.733276,655.147278 
	C546.853149,654.763550 546.973022,654.379883 547.016357,654.019592 
	C547.016357,654.019592 547.040466,654.095947 547.562561,653.744995 
	C547.783691,653.157898 548.004822,652.570862 548.065125,652.033875 
	C548.065125,652.033875 548.117188,652.194153 548.678101,651.888733 
	C548.971130,651.317383 549.264099,650.745972 549.238098,650.093872 
	C549.238098,650.093872 549.163025,650.414185 549.761902,650.170654 
	C549.906494,649.770630 550.051086,649.370544 549.979919,649.013000 
	C549.979919,649.013000 550.021912,649.228821 550.569763,649.011108 
	C550.752930,648.673645 550.936096,648.336243 551.027710,648.024841 
	C551.027710,648.024841 551.054810,648.116089 551.599182,647.811157 
	C551.921082,647.274109 552.242981,646.737061 552.234436,646.151672 
	C552.234436,646.151672 552.193604,646.483032 552.811279,646.224731 
	C553.001221,645.831726 553.191162,645.438660 553.065369,645.074768 
	C553.065369,645.074768 553.097351,645.390137 553.704895,645.148071 
	C553.898926,644.767395 554.092896,644.386780 554.018250,643.998657 
	C554.018250,643.998657 554.011169,644.267395 554.597534,644.080750 
	C554.815674,643.740540 555.033813,643.400330 555.842224,642.783936 
	C558.990051,639.858337 562.116638,636.909485 565.289551,634.011353 
	C575.910706,624.310181 586.583496,614.658569 594.101013,601.551147 
	C594.101013,601.551147 594.237000,601.078796 594.124512,601.086060 
	C594.124512,601.086060 594.136047,601.198181 594.701172,600.890869 
	C595.179810,599.949463 595.658447,599.007996 596.066772,598.065857 
	C596.066772,598.065857 596.081543,598.134644 596.663147,597.769409 
	C597.739319,595.509766 598.815491,593.250183 600.065552,590.611511 
	C600.065552,590.611511 600.069824,590.194519 600.649719,589.752869 
	C607.152344,574.812805 609.726807,559.266418 607.964783,542.225342 
	C606.078369,530.676880 602.972961,519.576050 595.928345,509.262512 
	C595.315063,508.463837 594.701843,507.665161 594.026184,506.968933 
	C594.026184,506.968933 594.129211,507.030518 593.964355,506.343536 
	C593.647644,506.017700 593.330933,505.691864 593.170288,505.179810 
	C593.170288,505.179810 592.987610,505.019592 592.896790,504.475891 
	C592.599915,504.271698 592.302979,504.067505 591.999268,503.993744 
	C591.999268,503.993744 592.129700,504.000214 591.949158,503.438416 
	C591.640930,503.213440 591.332642,502.988495 591.076477,502.912506 
	C591.076477,502.912506 591.224365,502.857483 591.034790,502.260315 
	C590.372070,501.479156 589.709351,500.697968 589.022888,499.979431 
	C589.022888,499.979431 589.089111,499.989502 588.923767,499.461731 
	C588.630859,499.247864 588.337952,499.033997 587.941284,498.391327 
	C587.790344,498.104034 587.552917,497.949585 586.979004,497.399780 
	C586.650513,497.204041 586.322021,497.008301 586.009155,497.001617 
	C586.009155,497.001617 586.198181,496.985504 585.990723,496.421600 
	C585.667725,496.202423 585.344788,495.983246 585.027710,495.974121 
	C585.027710,495.974121 585.237732,495.967133 585.015503,495.407043 
	C584.679199,495.202209 584.342834,494.997375 584.015747,494.987213 
	C584.015747,494.987213 584.210388,494.977478 583.994080,494.420715 
	C583.665955,494.210419 583.337769,494.000153 583.008057,493.989197 
	C583.008057,493.989197 583.207397,493.990387 583.004883,493.435913 
	C582.690918,493.212799 582.376953,492.989716 581.942627,492.349854 
	C581.770447,492.085876 581.526855,491.947723 580.966614,491.422729 
	C580.641602,491.242401 580.316589,491.062073 579.994568,491.006195 
	C579.994568,491.006195 580.118958,491.003601 579.915894,490.494080 
M506.288574,784.760498 
	C513.692932,786.920837 521.043457,786.643494 528.255981,784.013733 
	C543.313599,778.523499 552.541565,761.658325 548.046448,747.180237 
	C547.084045,743.857239 546.350159,740.447083 545.121094,737.225830 
	C538.698914,720.394470 523.069519,711.530334 505.713348,716.137512 
	C493.304230,719.431519 482.069183,725.599670 477.993073,739.204712 
	C472.375061,757.956299 485.439087,778.938049 506.288574,784.760498 
z"/>
<path fill="#FFFFFF" opacity="1.000000" stroke="none" 
	d="
M533.857849,309.024780 
	C533.907288,308.260040 533.956726,307.495331 533.989624,305.890869 
	C534.554504,297.027069 535.135864,289.003052 535.717224,280.979004 
	C541.057556,252.553513 552.905640,227.517899 574.156067,207.417084 
	C594.297913,188.364944 622.169617,184.153320 643.721802,196.912079 
	C658.649597,205.749237 668.024048,219.323547 674.781616,234.759811 
	C695.807129,282.788422 682.854858,345.194061 644.493164,380.927704 
	C622.280212,401.618988 588.493652,404.763641 565.893860,386.026093 
	C551.273865,373.904572 543.267334,357.739349 538.117981,339.906219 
	C537.113464,336.427094 536.531616,332.825867 535.456909,328.590881 
	C534.815369,326.399933 534.471741,324.899078 534.128113,323.398224 
	C534.128113,323.398224 534.320679,323.703125 534.506897,323.086609 
	C534.414673,317.988312 534.136230,313.506531 533.857849,309.024780 
z"/>
<path fill="#FFFFFF" opacity="1.000000" stroke="none" 
	d="
M393.932251,191.797897 
	C415.598175,186.349854 434.034760,192.084045 449.880554,206.575134 
	C472.963470,227.684631 485.781097,254.312973 489.917908,285.024078 
	C493.262726,309.855316 491.919159,334.371735 480.891144,357.491302 
	C472.636169,374.797302 461.252380,389.646759 442.317749,395.592285 
	C420.022095,402.593170 399.653595,397.193726 382.282990,381.678131 
	C358.738556,360.648010 346.142487,333.743835 342.048798,302.840088 
	C338.336151,274.813049 342.117950,247.936783 357.034149,223.315292 
	C365.770782,208.894119 376.959320,197.255600 393.932251,191.797897 
z"/>
<path fill="#FFFFFF" opacity="1.000000" stroke="none" 
	d="
M676.497192,429.405396 
	C679.355225,409.410126 685.205750,390.445923 695.872498,373.138947 
	C704.786987,358.675140 715.545532,345.981201 730.370422,337.192535 
	C761.036255,319.012909 801.177185,327.210724 815.766785,366.324219 
	C829.326477,402.676392 824.697388,438.029205 806.581726,471.784973 
	C798.131104,487.531403 786.404358,500.625793 771.262634,510.345490 
	C738.441162,531.414001 702.154419,521.356079 685.588501,486.058105 
	C681.448303,477.236359 679.790161,467.249725 676.897705,456.971741 
	C676.594055,448.257935 676.383972,440.370850 676.359375,432.239441 
	C676.503784,431.415924 676.462830,430.836761 676.572144,430.056152 
	C676.647400,429.704956 676.572327,429.555176 676.497192,429.405396 
z"/>
<path fill="#FFFFFF" opacity="1.000000" stroke="none" 
	d="
M327.778778,504.928589 
	C327.228119,505.384827 326.677490,505.841064 325.768280,506.665100 
	C325.196259,507.341248 324.982788,507.649536 324.769318,507.957825 
	C324.769318,507.957825 324.900574,507.927246 324.606995,507.965881 
	C323.736053,508.530060 323.158752,509.055573 322.581421,509.581116 
	C322.581421,509.581116 322.981354,509.818024 322.504089,509.807800 
	C321.297607,510.494415 320.568451,511.191284 319.839294,511.888153 
	C319.839294,511.888153 319.949738,511.924988 319.675293,511.944946 
	C319.120819,512.229431 318.840759,512.494019 318.560730,512.758545 
	C318.560730,512.758545 318.805511,512.728882 318.489685,512.712158 
	C317.725250,513.091858 317.276611,513.488220 316.827972,513.884583 
	C316.827972,513.884583 316.947510,513.908508 316.654236,513.920410 
	C315.874207,514.270203 315.387390,514.608154 314.900574,514.946106 
	C314.900574,514.946106 314.961609,514.976929 314.631775,515.000671 
	C312.748749,515.787415 311.195587,516.550476 309.642426,517.313477 
	C309.642426,517.313477 309.504791,517.238892 309.117065,517.452515 
	C305.823944,518.490601 302.918579,519.315125 300.013214,520.139648 
	C278.393555,523.959717 260.122101,516.707397 244.295914,502.579437 
	C220.218643,481.085693 207.404953,453.830444 203.908890,421.889191 
	C201.684418,401.565704 203.290833,381.844635 211.730774,363.000275 
	C227.762192,327.206024 264.000763,319.627838 294.956177,336.708862 
	C296.113739,337.347565 297.210022,338.097412 298.889099,339.056549 
	C299.930145,339.596649 300.416992,339.875671 300.903809,340.154663 
	C300.903809,340.154663 300.912598,340.082642 301.025208,340.358917 
	C301.668976,340.935455 302.200104,341.235687 302.731262,341.535950 
	C302.731262,341.535950 302.789795,341.286896 302.814636,341.524170 
	C303.200165,341.920502 303.560822,342.079559 303.921509,342.238617 
	C303.954224,342.565735 304.116943,342.804138 304.782227,343.272308 
	C305.691315,343.901398 306.227875,344.211975 306.764404,344.522522 
	C306.764404,344.522522 306.737976,344.363770 306.825439,344.630188 
	C307.563446,345.332977 308.213989,345.769348 308.864532,346.205719 
	C308.864532,346.205719 308.900970,346.072784 308.942139,346.327087 
	C309.301483,346.786469 309.619598,346.991547 309.937744,347.196625 
	C312.027008,349.393097 314.116302,351.589600 316.612915,354.191223 
	C317.331207,354.809601 317.642151,355.022827 317.953094,355.236084 
	C317.953094,355.236084 317.927002,355.106201 317.971649,355.396667 
	C318.556641,356.254913 319.097015,356.822662 319.637360,357.390442 
	C319.637360,357.390442 319.682190,357.247162 319.703400,357.504211 
	C319.989075,358.031219 320.253510,358.301208 320.517975,358.571198 
	C320.517975,358.571198 320.491302,358.465820 320.591736,358.732422 
	C321.099823,359.379669 321.507477,359.760345 321.915161,360.140991 
	C321.915161,360.140991 321.934296,360.071716 322.003662,360.383026 
	C323.017059,361.843140 323.961090,362.991943 324.905151,364.140747 
	C324.905151,364.140747 324.932190,364.071167 325.017731,364.400818 
	C326.692047,367.001709 328.280823,369.273010 329.869568,371.544312 
	C329.869568,371.544312 329.824554,371.811035 329.951965,372.177979 
	C330.360901,372.773773 330.642426,373.002655 330.923950,373.231537 
	C330.923950,373.231537 330.937073,373.052368 330.920746,373.350311 
	C331.252258,374.130554 331.600128,374.612885 331.947968,375.095184 
	C331.947968,375.095184 331.982330,375.036133 332.006470,375.353760 
	C332.601227,376.541992 333.171844,377.412598 333.742432,378.283234 
	C333.742432,378.283234 333.775604,378.120453 333.778625,378.434631 
	C334.155426,379.264587 334.529205,379.780396 334.902985,380.296173 
	C334.902985,380.296173 334.898651,380.664154 334.975708,381.108948 
	C335.318726,381.802063 335.584656,382.050385 335.850586,382.298737 
	C335.850586,382.298737 335.870819,382.087311 335.836243,382.397644 
	C336.109894,383.240387 336.418121,383.772827 336.726349,384.305267 
	C336.726349,384.305267 336.727448,384.186401 336.763733,384.547699 
	C338.020599,387.736237 339.241150,390.563446 340.461670,393.390686 
	C340.461670,393.390686 340.553162,393.209534 340.635620,393.642151 
	C347.101868,412.378998 350.947693,431.166748 348.873993,450.563995 
	C347.781250,460.785461 344.882202,470.813782 342.798737,480.929321 
	C342.798737,480.929321 342.887939,480.915924 342.600464,481.084961 
	C341.402283,483.429504 340.491608,485.605011 339.580963,487.780518 
	C339.580963,487.780518 339.767334,487.807098 339.528320,487.862000 
	C339.188934,488.277191 339.088623,488.637512 338.988281,488.997803 
	C338.988251,488.997803 339.004791,488.996887 338.798981,489.202576 
	C338.362793,489.934235 338.132446,490.460144 337.902069,490.986084 
	C337.902069,490.986084 337.969788,490.968719 337.703613,491.109497 
	C337.226624,491.825470 337.015808,492.400665 336.804993,492.975891 
	C336.805023,492.975891 336.919861,492.954590 336.630798,493.043732 
	C336.075195,493.698914 335.808624,494.264954 335.542053,494.831024 
	C335.542053,494.831024 335.791229,494.850128 335.538330,494.873413 
	C335.138489,495.259766 334.991486,495.622833 334.844482,495.985870 
	C334.844482,495.985870 334.942474,495.959717 334.652496,496.054871 
	C334.090057,496.707184 333.817566,497.264343 333.545105,497.821472 
	C333.545105,497.821472 333.789520,497.841125 333.530975,497.864258 
	C333.107666,498.248505 332.942902,498.609650 332.778137,498.970764 
	C332.778107,498.970764 332.963654,498.961273 332.694031,498.979431 
	C332.235260,499.316528 332.046082,499.635498 331.856934,499.954468 
	C331.529053,500.013641 331.277649,500.184998 330.765015,500.841675 
	C330.170807,501.782043 329.914246,502.349182 329.657684,502.916321 
	C329.657684,502.916321 329.895935,502.925079 329.620117,502.924988 
	C329.145996,503.266296 328.947723,503.607727 328.749451,503.949158 
	C328.749451,503.949158 328.951172,503.953339 328.678040,503.959808 
	C328.196198,504.287048 327.987488,504.607819 327.778778,504.928589 
z"/>
<path fill="#086DF6" opacity="1.000000" stroke="none" 
	d="
M413.932220,829.821533 
	C437.980347,824.946533 461.899536,819.249268 486.116791,815.453308 
	C505.976807,812.340271 526.174255,812.824646 546.577209,816.044189 
	C542.083923,816.045532 537.145752,816.322327 532.283997,815.836121 
	C510.252808,813.632874 488.515625,815.395630 466.985352,820.255005 
	C453.700165,823.253601 440.466431,826.482910 427.162689,829.394409 
	C423.132141,830.276489 418.944916,830.442566 414.392578,830.657837 
	C413.947876,830.193176 413.940063,830.007324 413.932220,829.821533 
z"/>
<path fill="#157CF9" opacity="1.000000" stroke="none" 
	d="
M343.111023,480.753784 
	C344.882202,470.813782 347.781250,460.785461 348.873993,450.563995 
	C350.947693,431.166748 347.101868,412.378998 340.565552,393.715546 
	C341.244690,394.317596 342.466888,395.144440 342.850739,396.259827 
	C351.926514,422.633026 354.352905,449.274841 345.708405,476.280701 
	C345.221680,477.801208 344.197388,479.149689 343.111023,480.753784 
z"/>
<path fill="#086DF6" opacity="1.000000" stroke="none" 
	d="
M581.346680,824.796997 
	C593.841125,826.329651 606.518311,828.885498 619.312073,829.785950 
	C634.063660,830.824219 648.647034,828.182007 663.412109,824.519531 
	C662.600220,825.175903 661.470093,826.332153 660.133606,826.668396 
	C642.394958,831.131409 624.392273,832.231445 606.237488,830.264343 
	C599.648804,829.550476 593.115051,828.273804 586.589294,827.073669 
	C584.856750,826.755005 583.247009,825.768433 581.346680,824.796997 
z"/>
<path fill="#076FF7" opacity="1.000000" stroke="none" 
	d="
M763.490356,700.795044 
	C762.860168,688.608643 762.559448,676.232971 762.260254,663.444397 
	C763.141663,666.081665 764.649719,669.105042 764.781189,672.187073 
	C765.147339,680.771667 764.975342,689.380859 764.912476,697.979614 
	C764.906067,698.857605 764.200806,699.730469 763.490356,700.795044 
z"/>
<path fill="#046FF9" opacity="1.000000" stroke="none" 
	d="
M535.442749,280.956604 
	C535.135864,289.003052 534.554504,297.027069 533.912720,305.513702 
	C532.441223,297.531708 532.081177,289.142395 535.442749,280.956604 
z"/>
<path fill="#0169F9" opacity="1.000000" stroke="none" 
	d="
M676.173828,432.483765 
	C676.383972,440.370850 676.594055,448.257935 676.789307,456.559875 
	C676.250488,456.378235 675.262634,455.774048 675.272278,455.186340 
	C675.409912,446.845398 675.682739,438.506714 676.210022,429.786438 
	C676.572327,429.555176 676.647400,429.704956 676.464905,430.608429 
	C676.196167,431.735992 676.184998,432.109894 676.173828,432.483765 
z"/>
<path fill="#0068F6" opacity="1.000000" stroke="none" 
	d="
M413.469971,829.770996 
	C413.940063,830.007324 413.947876,830.193176 413.968811,830.657104 
	C407.352905,830.958008 400.722931,831.050903 394.095764,830.951782 
	C392.541138,830.928528 390.996216,830.256104 389.240509,829.570557 
	C397.025360,829.412659 405.016510,829.566528 413.469971,829.770996 
z"/>
<path fill="#157CF9" opacity="1.000000" stroke="none" 
	d="
M300.327026,520.322205 
	C302.918579,519.315125 305.823944,518.490601 309.069550,517.514648 
	C307.357208,520.840088 304.171478,521.153809 300.327026,520.322205 
z"/>
<path fill="#157CF9" opacity="1.000000" stroke="none" 
	d="
M340.557800,392.992004 
	C339.241150,390.563446 338.020599,387.736237 336.704468,384.551758 
	C337.957245,386.994080 339.305573,389.793671 340.557800,392.992004 
z"/>
<path fill="#046FF9" opacity="1.000000" stroke="none" 
	d="
M533.662476,309.382599 
	C534.136230,313.506531 534.414673,317.988312 534.660278,322.991852 
	C534.240723,318.922577 533.853882,314.331482 533.662476,309.382599 
z"/>
<path fill="#157CF9" opacity="1.000000" stroke="none" 
	d="
M329.839294,371.154327 
	C328.280823,369.273010 326.692047,367.001709 324.981079,364.407806 
	C326.508911,366.311554 328.158936,368.537964 329.839294,371.154327 
z"/>
<path fill="#157CF9" opacity="1.000000" stroke="none" 
	d="
M339.926331,487.651428 
	C340.491608,485.605011 341.402283,483.429504 342.591797,481.040710 
	C342.004303,483.059021 341.137970,485.290680 339.926331,487.651428 
z"/>
<path fill="#157CF9" opacity="1.000000" stroke="none" 
	d="
M310.012573,517.439514 
	C311.195587,516.550476 312.748749,515.787415 314.627869,514.966675 
	C313.430145,515.794495 311.906433,516.679993 310.012573,517.439514 
z"/>
<path fill="#157CF9" opacity="1.000000" stroke="none" 
	d="
M324.902161,363.774841 
	C323.961090,362.991943 323.017059,361.843140 321.968140,360.388580 
	C322.875244,361.191528 323.887177,362.300262 324.902161,363.774841 
z"/>
<path fill="#046FF9" opacity="1.000000" stroke="none" 
	d="
M534.108032,323.791504 
	C534.471741,324.899078 534.815369,326.399933 535.183105,328.305023 
	C534.834229,327.201080 534.461121,325.692932 534.108032,323.791504 
z"/>
<path fill="#157CF9" opacity="1.000000" stroke="none" 
	d="
M333.768951,377.930054 
	C333.171844,377.412598 332.601227,376.541992 331.972565,375.357849 
	C332.541504,375.888489 333.168488,376.732697 333.768951,377.930054 
z"/>
<path fill="#157CF9" opacity="1.000000" stroke="none" 
	d="
M320.196533,511.875214 
	C320.568451,511.191284 321.297607,510.494415 322.310486,509.678589 
	C321.914001,510.327209 321.233887,511.094727 320.196533,511.875214 
z"/>
<path fill="#086DF6" opacity="1.000000" stroke="none" 
	d="
M663.936707,824.577881 
	C664.537170,824.230164 665.453796,823.984436 666.643677,823.654175 
	C666.028931,823.939697 665.140930,824.309753 663.936707,824.577881 
z"/>
<path fill="#157CF9" opacity="1.000000" stroke="none" 
	d="
M319.621063,357.061951 
	C319.097015,356.822662 318.556641,356.254913 317.907104,355.411499 
	C318.400177,355.668365 319.002472,356.200928 319.621063,357.061951 
z"/>
<path fill="#157CF9" opacity="1.000000" stroke="none" 
	d="
M322.911133,509.577972 
	C323.158752,509.055573 323.736053,508.530060 324.589966,507.900665 
	C324.324677,508.389496 323.782776,508.982178 322.911133,509.577972 
z"/>
<path fill="#157CF9" opacity="1.000000" stroke="none" 
	d="
M308.781128,345.887146 
	C308.213989,345.769348 307.563446,345.332977 306.747375,344.649658 
	C307.287170,344.791351 307.992462,345.179962 308.781128,345.887146 
z"/>
<path fill="#157CF9" opacity="1.000000" stroke="none" 
	d="
M300.865295,339.902710 
	C300.416992,339.875671 299.930145,339.596649 299.227875,339.130188 
	C299.617218,339.178741 300.221985,339.414764 300.865295,339.902710 
z"/>
<path fill="#157CF9" opacity="1.000000" stroke="none" 
	d="
M317.133423,513.815674 
	C317.276611,513.488220 317.725250,513.091858 318.470337,512.590454 
	C318.324158,512.905884 317.881500,513.326355 317.133423,513.815674 
z"/>
<path fill="#157CF9" opacity="1.000000" stroke="none" 
	d="
M306.604248,344.247986 
	C306.227875,344.211975 305.691315,343.901398 305.001099,343.321716 
	C305.379639,343.359497 305.911865,343.666473 306.604248,344.247986 
z"/>
<path fill="#157CF9" opacity="1.000000" stroke="none" 
	d="
M333.807526,497.649445 
	C333.817566,497.264343 334.090057,496.707184 334.638428,496.006165 
	C334.632904,496.400635 334.351440,496.939026 333.807526,497.649445 
z"/>
<path fill="#157CF9" opacity="1.000000" stroke="none" 
	d="
M315.196808,514.879761 
	C315.387390,514.608154 315.874207,514.270203 316.664734,513.860352 
	C316.476685,514.130066 315.984863,514.471741 315.196808,514.879761 
z"/>
<path fill="#157CF9" opacity="1.000000" stroke="none" 
	d="
M321.830933,359.852997 
	C321.507477,359.760345 321.099823,359.379669 320.542053,358.754456 
	C320.843536,358.861603 321.295105,359.213318 321.830933,359.852997 
z"/>
<path fill="#157CF9" opacity="1.000000" stroke="none" 
	d="
M329.901764,502.724609 
	C329.914246,502.349182 330.170807,501.782043 330.702393,501.066925 
	C330.700226,501.456940 330.423035,501.994934 329.901764,502.724609 
z"/>
<path fill="#157CF9" opacity="1.000000" stroke="none" 
	d="
M302.579895,341.260864 
	C302.200104,341.235687 301.668976,340.935455 300.990112,340.368073 
	C301.371094,340.395905 301.899811,340.690826 302.579895,341.260864 
z"/>
<path fill="#157CF9" opacity="1.000000" stroke="none" 
	d="
M334.839417,379.973389 
	C334.529205,379.780396 334.155426,379.264587 333.696594,378.421631 
	C333.999634,378.613159 334.387756,379.131897 334.839417,379.973389 
z"/>
<path fill="#157CF9" opacity="1.000000" stroke="none" 
	d="
M338.105804,490.777679 
	C338.132446,490.460144 338.362793,489.934235 338.793213,489.195251 
	C338.765320,489.511230 338.537445,490.040253 338.105804,490.777679 
z"/>
<path fill="#157CF9" opacity="1.000000" stroke="none" 
	d="
M337.023865,492.764160 
	C337.015808,492.400665 337.226624,491.825470 337.692352,491.076416 
	C337.712433,491.452484 337.477570,492.002441 337.023865,492.764160 
z"/>
<path fill="#157CF9" opacity="1.000000" stroke="none" 
	d="
M335.804108,494.654083 
	C335.808624,494.264954 336.075195,493.698914 336.618866,492.986572 
	C336.619354,493.385864 336.342773,493.931519 335.804108,494.654083 
z"/>
<path fill="#157CF9" opacity="1.000000" stroke="none" 
	d="
M336.705200,383.983398 
	C336.418121,383.772827 336.109894,383.240387 335.730316,382.389709 
	C336.000702,382.601501 336.342377,383.131531 336.705200,383.983398 
z"/>
<path fill="#157CF9" opacity="1.000000" stroke="none" 
	d="
M331.878418,374.799072 
	C331.600128,374.612885 331.252258,374.130554 330.831085,373.344910 
	C331.108154,373.528687 331.458527,374.015808 331.878418,374.799072 
z"/>
<path fill="#157CF9" opacity="1.000000" stroke="none" 
	d="
M330.799896,373.006470 
	C330.642426,373.002655 330.360901,372.773773 330.053436,372.267395 
	C330.243622,372.253723 330.459747,372.517548 330.799896,373.006470 
z"/>
<path fill="#157CF9" opacity="1.000000" stroke="none" 
	d="
M335.752014,382.062256 
	C335.584656,382.050385 335.318726,381.802063 335.062073,381.271423 
	C335.265411,381.268005 335.459442,381.546875 335.752014,382.062256 
z"/>
<path fill="#157CF9" opacity="1.000000" stroke="none" 
	d="
M303.723938,342.031677 
	C303.560822,342.079559 303.200165,341.920502 302.689087,341.499542 
	C302.867950,341.433350 303.197174,341.629059 303.723938,342.031677 
z"/>
<path fill="#157CF9" opacity="1.000000" stroke="none" 
	d="
M317.785339,355.015656 
	C317.642151,355.022827 317.331207,354.809601 316.905121,354.332642 
	C317.065826,354.311035 317.341675,354.553131 317.785339,355.015656 
z"/>
<path fill="#157CF9" opacity="1.000000" stroke="none" 
	d="
M309.770142,346.978363 
	C309.619598,346.991547 309.301483,346.786469 308.875244,346.310547 
	C309.045624,346.279846 309.324097,346.519989 309.770142,346.978363 
z"/>
<path fill="#157CF9" opacity="1.000000" stroke="none" 
	d="
M332.984283,498.769958 
	C332.942902,498.609650 333.107666,498.248505 333.537109,497.741821 
	C333.598022,497.920563 333.394226,498.244843 332.984283,498.769958 
z"/>
<path fill="#157CF9" opacity="1.000000" stroke="none" 
	d="
M332.066040,499.784973 
	C332.046082,499.635498 332.235260,499.316528 332.688507,498.886658 
	C332.726776,499.055664 332.500977,499.335602 332.066040,499.784973 
z"/>
<path fill="#157CF9" opacity="1.000000" stroke="none" 
	d="
M335.039429,495.781311 
	C334.991486,495.622833 335.138489,495.259766 335.544342,494.748596 
	C335.613586,494.925934 335.423950,495.251343 335.039429,495.781311 
z"/>
<path fill="#157CF9" opacity="1.000000" stroke="none" 
	d="
M328.970184,503.766479 
	C328.947723,503.607727 329.145996,503.266296 329.622681,502.805786 
	C329.664337,502.985718 329.427612,503.284760 328.970184,503.766479 
z"/>
<path fill="#157CF9" opacity="1.000000" stroke="none" 
	d="
M328.001160,504.761566 
	C327.987488,504.607819 328.196198,504.287048 328.679138,503.858948 
	C328.710114,504.032593 328.466827,504.313568 328.001160,504.761566 
z"/>
<path fill="#157CF9" opacity="1.000000" stroke="none" 
	d="
M324.989380,507.792114 
	C324.982788,507.649536 325.196259,507.341248 325.674011,506.921021 
	C325.695343,507.081573 325.452393,507.353973 324.989380,507.792114 
z"/>
<path fill="#157CF9" opacity="1.000000" stroke="none" 
	d="
M318.822479,512.639832 
	C318.840759,512.494019 319.120819,512.229431 319.692444,511.889313 
	C319.684113,512.049500 319.384186,512.285339 318.822479,512.639832 
z"/>
<path fill="#157CF9" opacity="1.000000" stroke="none" 
	d="
M320.420776,358.301697 
	C320.253510,358.301208 319.989075,358.031219 319.630249,357.487274 
	C319.798492,357.486267 320.061035,357.759216 320.420776,358.301697 
z"/>
<path fill="#157CF9" opacity="1.000000" stroke="none" 
	d="
M339.158905,488.792480 
	C339.088623,488.637512 339.188934,488.277191 339.537354,487.768311 
	C339.633484,487.942200 339.481506,488.264679 339.158905,488.792480 
z"/>
<path fill="#1486F9" opacity="1.000000" stroke="none" 
	d="
M488.166779,643.035522 
	C492.280304,632.699585 498.875854,624.018921 506.444397,616.046570 
	C515.828613,606.161682 526.007141,596.950500 534.647827,586.463867 
	C542.450562,576.994141 547.007935,565.736755 545.017944,552.812744 
	C543.973450,546.029297 540.878174,540.356934 535.083252,536.905029 
	C520.954285,528.488770 501.829987,526.740784 486.954041,538.126404 
	C480.713959,542.902405 477.398895,549.493225 475.114716,556.695007 
	C471.501282,568.087708 468.898071,570.349060 456.947144,569.959900 
	C447.331451,569.646729 437.692230,568.980225 428.149231,567.785278 
	C416.281952,566.299438 412.862457,560.228516 415.267426,547.547546 
	C419.488434,525.290833 431.044312,507.385834 447.776794,492.106567 
	C448.453857,491.958069 448.528778,491.778748 448.432007,491.494293 
	C448.432007,491.494293 448.463135,491.463562 448.817810,491.483948 
	C449.737213,490.933777 450.301971,490.363190 450.866730,489.792572 
	C450.866730,489.792572 450.869812,489.867096 451.117157,489.796722 
	C451.683563,489.278900 452.002625,488.831421 452.321686,488.383942 
	C452.321686,488.383942 452.356720,488.209076 452.763123,488.287842 
	C453.749817,487.859467 454.330139,487.352356 454.910461,486.845245 
	C454.910461,486.845245 454.914246,486.916534 455.186035,486.837341 
	C455.902039,486.328400 456.346222,485.898590 456.790405,485.468811 
	C456.790436,485.468811 456.863617,485.760559 456.974854,485.653046 
	C457.387909,485.301208 457.689728,485.056854 457.991547,484.812500 
	C457.991547,484.812531 457.955261,484.935150 458.204620,484.854279 
	C458.943176,484.387543 459.432343,484.001709 459.921539,483.615845 
	C459.921539,483.615845 459.939606,483.894440 460.043030,483.755371 
	C460.429291,483.371033 460.712097,483.125732 460.994934,482.880432 
	C460.994934,482.880463 460.968414,482.965668 461.224731,482.891083 
	C461.984009,482.486877 462.487000,482.157257 462.989990,481.827637 
	C462.989990,481.827637 462.964111,481.940643 463.211182,481.874146 
	C463.972687,481.484894 464.487122,481.162140 465.001587,480.839386 
	C465.001587,480.839386 464.988098,480.987579 465.119293,480.853882 
	C465.524628,480.551483 465.772552,480.350403 465.994202,480.116913 
	C465.994202,480.116913 466.364685,479.940735 466.961182,479.946899 
	C468.905182,479.106659 470.252747,478.260254 471.600281,477.413849 
	C471.600281,477.413849 471.678864,477.438843 472.057007,477.560272 
	C475.301819,476.953003 478.196045,476.317596 481.030334,475.479523 
	C493.967773,471.653961 507.113068,469.638031 520.622559,470.954224 
	C529.815613,471.849854 538.993835,472.897217 548.178711,473.876740 
	C548.178711,473.876740 548.063538,473.910370 548.280762,474.130005 
	C551.060059,475.213928 553.622131,476.078156 556.184143,476.942383 
	C556.184143,476.942383 556.604187,476.967987 557.005005,477.304840 
	C559.999817,478.716492 562.593811,479.791290 565.187866,480.866058 
	C565.187866,480.866058 565.038147,480.909698 565.245117,481.056458 
	C566.025879,481.431549 566.599670,481.659912 567.173462,481.888306 
	C567.173462,481.888306 567.036255,481.921051 567.237915,482.072937 
	C567.993286,482.466339 568.547058,482.707855 569.100769,482.949371 
	C569.100769,482.949371 569.038574,482.976257 569.111084,483.290710 
	C571.158386,484.715576 573.133118,485.825989 575.107849,486.936401 
	C575.107849,486.936401 575.043701,486.963837 575.147949,487.239899 
	C575.964233,487.900421 576.676392,488.284882 577.388489,488.669312 
	C577.388489,488.669312 577.184875,488.734192 577.334106,488.893188 
	C578.009460,489.357178 578.535522,489.662170 579.061584,489.967163 
	C579.061584,489.967194 579.005554,489.992523 579.177551,490.155731 
	C579.606018,490.547150 579.862488,490.775360 580.118958,491.003601 
	C580.118958,491.003601 579.994568,491.006195 580.178589,491.140747 
	C580.645691,491.495331 580.928772,491.715363 581.211914,491.935394 
	C581.526855,491.947723 581.770447,492.085876 582.170105,492.782410 
	C582.667542,493.473419 582.937439,493.731903 583.207397,493.990387 
	C583.207397,493.990387 583.008057,493.989197 583.191528,494.105286 
	C583.653503,494.473389 583.931946,494.725433 584.210388,494.977478 
	C584.210388,494.977478 584.015747,494.987213 584.199097,495.103760 
	C584.667603,495.469238 584.952637,495.718201 585.237732,495.967133 
	C585.237732,495.967133 585.027710,495.974121 585.202637,496.090515 
	C585.651123,496.466431 585.924683,496.725952 586.198181,496.985504 
	C586.198181,496.985504 586.009155,497.001617 586.190186,497.112488 
	C586.657166,497.458282 586.943176,497.693176 587.229126,497.928040 
	C587.552917,497.949585 587.790344,498.104034 588.146606,498.818115 
	C588.597656,499.493103 588.843384,499.741302 589.089111,499.989502 
	C589.089111,499.989502 589.022888,499.979431 589.058716,500.294067 
	C589.804504,501.358307 590.514404,502.107880 591.224365,502.857483 
	C591.224365,502.857483 591.076477,502.912506 591.217651,503.059692 
	C591.615845,503.471313 591.872742,503.735748 592.129700,504.000214 
	C592.129700,504.000214 591.999268,503.993744 592.151611,504.134216 
	C592.531860,504.522980 592.759705,504.771301 592.987610,505.019592 
	C592.987610,505.019592 593.170288,505.179810 593.258240,505.562866 
	C593.607178,506.307434 593.868225,506.668976 594.129211,507.030518 
	C594.129211,507.030518 594.026184,506.968933 594.049438,507.226807 
	C594.742371,508.278290 595.411987,509.071869 596.081665,509.865448 
	C602.972961,519.576050 606.078369,530.676880 607.714783,542.988098 
	C607.305359,544.896301 606.978027,546.046753 607.012146,547.186401 
	C607.415100,560.641174 605.775269,573.738647 600.540955,586.267395 
	C600.052002,587.437744 600.211487,588.879028 600.069824,590.194519 
	C600.069824,590.194519 600.065552,590.611511 599.660889,590.922180 
	C598.197937,593.533447 597.139771,595.834045 596.081543,598.134644 
	C596.081543,598.134644 596.066772,598.065857 595.773254,598.169922 
	C595.031799,599.248718 594.583923,600.223450 594.136047,601.198181 
	C594.136047,601.198181 594.124512,601.086060 594.063232,601.164734 
	C593.777710,601.453308 593.737061,601.702209 593.879944,601.990173 
	C586.583496,614.658569 575.910706,624.310181 565.289551,634.011353 
	C562.116638,636.909485 558.990051,639.858337 555.324463,643.106079 
	C554.541565,643.707947 554.276367,643.987671 554.011169,644.267395 
	C554.011169,644.267395 554.018250,643.998657 553.936279,644.217468 
	C553.601990,644.754211 553.349670,645.072205 553.097412,645.390137 
	C553.097351,645.390137 553.065369,645.074768 553.002319,645.280762 
	C552.690674,645.818909 552.442139,646.150940 552.193604,646.483032 
	C552.193604,646.483032 552.234436,646.151672 552.122559,646.342041 
	C551.692017,647.060303 551.373413,647.588196 551.054810,648.116089 
	C551.054810,648.116089 551.027710,648.024841 550.873352,648.201172 
	C550.486633,648.661255 550.254272,648.945007 550.021912,649.228821 
	C550.021912,649.228821 549.979919,649.013000 549.905396,649.224365 
	C549.608276,649.761841 549.385681,650.088013 549.163025,650.414185 
	C549.163025,650.414185 549.238098,650.093872 549.121704,650.315063 
	C548.709351,651.088928 548.413269,651.641541 548.117188,652.194153 
	C548.117188,652.194153 548.065125,652.033875 547.930908,652.233887 
	C547.544678,652.987915 547.292542,653.541931 547.040466,654.095947 
	C547.040466,654.095947 547.016357,654.019592 546.875732,654.225891 
	C546.551514,654.760193 546.367798,655.088196 546.184082,655.416199 
	C546.184082,655.416199 546.159668,655.107239 546.048340,655.322998 
	C545.632629,656.376770 545.328186,657.214783 545.023804,658.052795 
	C545.023804,658.052795 544.991089,658.009338 544.822021,658.239746 
	C544.474915,659.045532 544.296814,659.620850 544.118774,660.196167 
	C544.118774,660.196167 544.081970,660.045227 543.869507,660.272949 
	C539.463867,668.646729 541.038574,677.586365 540.123596,686.183472 
	C540.123596,686.183472 540.084045,686.047363 539.929565,686.246826 
	C539.538574,687.006165 539.302124,687.566101 539.065674,688.126038 
	C539.065613,688.126038 539.033386,688.025940 538.880737,688.198242 
	C538.491943,688.652710 538.255920,688.934875 538.019836,689.216980 
	C538.019836,689.216980 538.009949,689.014587 537.895874,689.187256 
	C537.523926,689.626038 537.266052,689.892090 537.008179,690.158203 
	C537.008179,690.158203 537.039978,690.052856 536.667969,690.079224 
	C533.994690,690.405457 531.700134,690.892944 529.391174,690.974487 
	C515.109924,691.478760 500.871674,691.210632 486.829346,688.109436 
	C486.829346,688.109436 486.956390,688.064575 486.792999,687.914795 
	C486.351379,687.513123 486.073151,687.261230 485.794952,687.009338 
	C485.794952,687.009338 485.928711,687.045715 485.913239,686.702393 
	C482.200806,673.267761 484.051361,660.474854 487.864166,647.754761 
	C488.305145,646.283630 488.082031,644.613403 488.166779,643.035522 
z"/>
<path fill="#1486F9" opacity="1.000000" stroke="none" 
	d="
M505.646362,784.280090 
	C485.439087,778.938049 472.375061,757.956299 477.993073,739.204712 
	C482.069183,725.599670 493.304230,719.431519 505.713348,716.137512 
	C523.069519,711.530334 538.698914,720.394470 545.121094,737.225830 
	C546.350159,740.447083 547.084045,743.857239 547.842896,747.909912 
	C547.393555,749.931213 547.100830,751.216003 546.909302,752.515686 
	C545.358032,763.043457 540.322449,771.365845 531.638062,777.631531 
	C523.784729,783.297668 514.815552,784.048889 505.646362,784.280090 
z"/>
<path fill="#55A1FD" opacity="1.000000" stroke="none" 
	d="
M505.967468,784.520264 
	C514.815552,784.048889 523.784729,783.297668 531.638062,777.631531 
	C540.322449,771.365845 545.358032,763.043457 546.909302,752.515686 
	C547.100830,751.216003 547.393555,749.931213 547.851135,748.311035 
	C552.541565,761.658325 543.313599,778.523499 528.255981,784.013733 
	C521.043457,786.643494 513.692932,786.920837 505.967468,784.520264 
z"/>
<path fill="#0F78F8" opacity="1.000000" stroke="none" 
	d="
M547.915405,473.598755 
	C538.993835,472.897217 529.815613,471.849854 520.622559,470.954224 
	C507.113068,469.638031 493.967773,471.653961 481.030334,475.479523 
	C478.196045,476.317596 475.301819,476.953003 472.024902,477.586121 
	C489.826294,469.951721 508.738922,467.377075 528.269897,469.844818 
	C534.773193,470.666534 541.193787,472.143402 547.915405,473.598755 
z"/>
<path fill="#0B74F8" opacity="1.000000" stroke="none" 
	d="
M487.032288,688.421509 
	C500.871674,691.210632 515.109924,691.478760 529.391174,690.974487 
	C531.700134,690.892944 533.994690,690.405457 536.720337,690.095947 
	C534.084961,691.062439 531.003662,692.930115 527.969116,692.856995 
	C516.187683,692.572998 504.415100,691.756104 492.655304,690.913269 
	C490.806030,690.780640 489.039825,689.489197 487.032288,688.421509 
z"/>
<path fill="#0E75F8" opacity="1.000000" stroke="none" 
	d="
M600.359741,589.973694 
	C600.211487,588.879028 600.052002,587.437744 600.540955,586.267395 
	C605.775269,573.738647 607.415100,560.641174 607.012146,547.186401 
	C606.978027,546.046753 607.305359,544.896301 607.662964,543.392761 
	C609.726807,559.266418 607.152344,574.812805 600.359741,589.973694 
z"/>
<path fill="#086FF7" opacity="1.000000" stroke="none" 
	d="
M488.032806,643.383423 
	C488.082031,644.613403 488.305145,646.283630 487.864166,647.754761 
	C484.051361,660.474854 482.200806,673.267761 485.893921,686.768982 
	C484.933258,685.192261 483.261444,683.249634 483.136292,681.211975 
	C482.352173,668.446533 482.625183,655.752563 488.032806,643.383423 
z"/>
<path fill="#0B74F8" opacity="1.000000" stroke="none" 
	d="
M540.428772,685.920776 
	C541.038574,677.586365 539.463867,668.646729 543.945312,660.255859 
	C543.067078,668.560059 541.900513,677.109070 540.428772,685.920776 
z"/>
<path fill="#0F78F8" opacity="1.000000" stroke="none" 
	d="
M565.009888,480.566895 
	C562.593811,479.791290 559.999817,478.716492 557.205994,477.366821 
	C559.614746,478.150574 562.223328,479.209167 565.009888,480.566895 
z"/>
<path fill="#0F78F8" opacity="1.000000" stroke="none" 
	d="
M574.937622,486.648895 
	C573.133118,485.825989 571.158386,484.715576 569.114685,483.257019 
	C570.952942,484.059723 572.860229,485.210541 574.937622,486.648895 
z"/>
<path fill="#0E75F8" opacity="1.000000" stroke="none" 
	d="
M596.372314,597.952026 
	C597.139771,595.834045 598.197937,593.533447 599.573914,591.111694 
	C598.815491,593.250183 597.739319,595.509766 596.372314,597.952026 
z"/>
<path fill="#0F78F8" opacity="1.000000" stroke="none" 
	d="
M556.006104,476.623474 
	C553.622131,476.078156 551.060059,475.213928 548.265503,474.072021 
	C550.631287,474.631073 553.229614,475.467834 556.006104,476.623474 
z"/>
<path fill="#0F78F8" opacity="1.000000" stroke="none" 
	d="
M471.280823,477.556396 
	C470.252747,478.260254 468.905182,479.106659 467.166199,479.940796 
	C468.170258,479.185303 469.565796,478.442108 471.280823,477.556396 
z"/>
<path fill="#0F78F8" opacity="1.000000" stroke="none" 
	d="
M596.005005,509.563965 
	C595.411987,509.071869 594.742371,508.278290 594.080688,507.175568 
	C594.701843,507.665161 595.315063,508.463837 596.005005,509.563965 
z"/>
<path fill="#0F78F8" opacity="1.000000" stroke="none" 
	d="
M591.129578,502.558899 
	C590.514404,502.107880 589.804504,501.358307 589.070557,500.262756 
	C589.709351,500.697968 590.372070,501.479156 591.129578,502.558899 
z"/>
<path fill="#0E75F8" opacity="1.000000" stroke="none" 
	d="
M594.418579,601.044556 
	C594.583923,600.223450 595.031799,599.248718 595.808411,598.170288 
	C595.658447,599.007996 595.179810,599.949463 594.418579,601.044556 
z"/>
<path fill="#0F78F8" opacity="1.000000" stroke="none" 
	d="
M450.589996,489.885925 
	C450.301971,490.363190 449.737213,490.933777 448.837067,491.473663 
	C449.105560,490.955078 449.709412,490.467194 450.589996,489.885925 
z"/>
<path fill="#0F78F8" opacity="1.000000" stroke="none" 
	d="
M577.224365,488.416199 
	C576.676392,488.284882 575.964233,487.900421 575.152405,487.205322 
	C575.721863,487.317444 576.390991,487.740265 577.224365,488.416199 
z"/>
<path fill="#0F78F8" opacity="1.000000" stroke="none" 
	d="
M454.643860,486.919800 
	C454.330139,487.352356 453.749817,487.859467 452.852203,488.290833 
	C453.149048,487.808136 453.763153,487.401215 454.643860,486.919800 
z"/>
<path fill="#0B74F8" opacity="1.000000" stroke="none" 
	d="
M545.274597,657.833130 
	C545.328186,657.214783 545.632629,656.376770 546.203003,655.313538 
	C546.154480,655.930054 545.839966,656.771790 545.274597,657.833130 
z"/>
<path fill="#0B74F8" opacity="1.000000" stroke="none" 
	d="
M551.327026,647.963623 
	C551.373413,647.588196 551.692017,647.060303 552.287720,646.366211 
	C552.242981,646.737061 551.921082,647.274109 551.327026,647.963623 
z"/>
<path fill="#0B74F8" opacity="1.000000" stroke="none" 
	d="
M548.397644,652.041443 
	C548.413269,651.641541 548.709351,651.088928 549.281250,650.355469 
	C549.264099,650.745972 548.971130,651.317383 548.397644,652.041443 
z"/>
<path fill="#0B74F8" opacity="1.000000" stroke="none" 
	d="
M547.301514,653.920471 
	C547.292542,653.541931 547.544678,652.987915 548.011353,652.208862 
	C548.004822,652.570862 547.783691,653.157898 547.301514,653.920471 
z"/>
<path fill="#0B74F8" opacity="1.000000" stroke="none" 
	d="
M544.377686,660.013672 
	C544.296814,659.620850 544.474915,659.045532 544.849121,658.237183 
	C544.909058,658.613220 544.772827,659.222229 544.377686,660.013672 
z"/>
<path fill="#0B74F8" opacity="1.000000" stroke="none" 
	d="
M539.342529,687.967712 
	C539.302124,687.566101 539.538574,687.006165 539.998047,686.228394 
	C540.020386,686.610107 539.819885,687.209778 539.342529,687.967712 
z"/>
<path fill="#0F78F8" opacity="1.000000" stroke="none" 
	d="
M459.607330,483.698242 
	C459.432343,484.001709 458.943176,484.387543 458.143646,484.835083 
	C458.319916,484.524750 458.806519,484.152679 459.607330,483.698242 
z"/>
<path fill="#0F78F8" opacity="1.000000" stroke="none" 
	d="
M456.492126,485.575623 
	C456.346222,485.898590 455.902039,486.328400 455.150726,486.832275 
	C455.293701,486.498383 455.743774,486.090424 456.492126,485.575623 
z"/>
<path fill="#0F78F8" opacity="1.000000" stroke="none" 
	d="
M452.101105,488.544800 
	C452.002625,488.831421 451.683563,489.278900 451.079895,489.795593 
	C451.157013,489.478424 451.518768,489.092041 452.101105,488.544800 
z"/>
<path fill="#0F78F8" opacity="1.000000" stroke="none" 
	d="
M578.914978,489.693054 
	C578.535522,489.662170 578.009460,489.357178 577.306091,488.790070 
	C577.675293,488.824951 578.221863,489.121918 578.914978,489.693054 
z"/>
<path fill="#0F78F8" opacity="1.000000" stroke="none" 
	d="
M568.929565,482.687805 
	C568.547058,482.707855 567.993286,482.466339 567.222778,482.004059 
	C567.590149,481.997620 568.174316,482.211914 568.929565,482.687805 
z"/>
<path fill="#0F78F8" opacity="1.000000" stroke="none" 
	d="
M462.678864,481.888153 
	C462.487000,482.157257 461.984009,482.486877 461.182312,482.877197 
	C461.378296,482.608185 461.873016,482.278442 462.678864,481.888153 
z"/>
<path fill="#0F78F8" opacity="1.000000" stroke="none" 
	d="
M567.011475,481.607971 
	C566.599670,481.659912 566.025879,481.431549 565.224609,480.981201 
	C565.614563,480.948669 566.231995,481.138153 567.011475,481.607971 
z"/>
<path fill="#0F78F8" opacity="1.000000" stroke="none" 
	d="
M464.686646,480.900208 
	C464.487122,481.162140 463.972687,481.484894 463.154907,481.860229 
	C463.358276,481.595581 463.864990,481.278320 464.686646,480.900208 
z"/>
<path fill="#0B74F8" opacity="1.000000" stroke="none" 
	d="
M552.502441,646.353882 
	C552.442139,646.150940 552.690674,645.818909 553.160156,645.266235 
	C553.191162,645.438660 553.001221,645.831726 552.502441,646.353882 
z"/>
<path fill="#0E75F8" opacity="1.000000" stroke="none" 
	d="
M593.990479,601.770630 
	C593.737061,601.702209 593.777710,601.453308 594.119507,601.161133 
	C594.237000,601.078796 594.101013,601.551147 593.990479,601.770630 
z"/>
<path fill="#0B74F8" opacity="1.000000" stroke="none" 
	d="
M550.295837,649.119995 
	C550.254272,648.945007 550.486633,648.661255 550.919128,648.188110 
	C550.936096,648.336243 550.752930,648.673645 550.295837,649.119995 
z"/>
<path fill="#0B74F8" opacity="1.000000" stroke="none" 
	d="
M549.462463,650.292419 
	C549.385681,650.088013 549.608276,649.761841 550.013306,649.203125 
	C550.051086,649.370544 549.906494,649.770630 549.462463,650.292419 
z"/>
<path fill="#0F78F8" opacity="1.000000" stroke="none" 
	d="
M460.705017,482.956146 
	C460.712097,483.125732 460.429291,483.371033 459.903625,483.762756 
	C459.912231,483.616760 460.163666,483.324310 460.705017,482.956146 
z"/>
<path fill="#0B74F8" opacity="1.000000" stroke="none" 
	d="
M485.901550,687.289429 
	C486.073151,687.261230 486.351379,687.513123 486.814392,687.978699 
	C486.668823,687.984802 486.338501,687.777222 485.901550,687.289429 
z"/>
<path fill="#0B74F8" opacity="1.000000" stroke="none" 
	d="
M546.458679,655.281738 
	C546.367798,655.088196 546.551514,654.760193 546.914001,654.214172 
	C546.973022,654.379883 546.853149,654.763550 546.458679,655.281738 
z"/>
<path fill="#0F78F8" opacity="1.000000" stroke="none" 
	d="
M465.725281,480.116241 
	C465.772552,480.350403 465.524628,480.551483 465.045227,480.846863 
	C465.045441,480.687561 465.250885,480.401550 465.725281,480.116241 
z"/>
<path fill="#0B74F8" opacity="1.000000" stroke="none" 
	d="
M537.290405,690.065430 
	C537.266052,689.892090 537.523926,689.626038 537.997070,689.182617 
	C537.999146,689.327759 537.785889,689.650146 537.290405,690.065430 
z"/>
<path fill="#0B74F8" opacity="1.000000" stroke="none" 
	d="
M538.293457,689.107544 
	C538.255920,688.934875 538.491943,688.652710 538.930908,688.182739 
	C538.944885,688.329285 538.755920,688.663696 538.293457,689.107544 
z"/>
<path fill="#0F78F8" opacity="1.000000" stroke="none" 
	d="
M594.046753,506.687012 
	C593.868225,506.668976 593.607178,506.307434 593.180176,505.655945 
	C593.330933,505.691864 593.647644,506.017700 594.046753,506.687012 
z"/>
<path fill="#0F78F8" opacity="1.000000" stroke="none" 
	d="
M586.094482,496.703552 
	C585.924683,496.725952 585.651123,496.466431 585.199707,495.985474 
	C585.344788,495.983246 585.667725,496.202423 586.094482,496.703552 
z"/>
<path fill="#0F78F8" opacity="1.000000" stroke="none" 
	d="
M587.104065,497.663910 
	C586.943176,497.693176 586.657166,497.458282 586.182373,497.017944 
	C586.322021,497.008301 586.650513,497.204041 587.104065,497.663910 
z"/>
<path fill="#0F78F8" opacity="1.000000" stroke="none" 
	d="
M589.006470,499.725616 
	C588.843384,499.741302 588.597656,499.493103 588.198486,499.032532 
	C588.337952,499.033997 588.630859,499.247864 589.006470,499.725616 
z"/>
<path fill="#0F78F8" opacity="1.000000" stroke="none" 
	d="
M584.102234,494.699097 
	C583.931946,494.725433 583.653503,494.473389 583.192383,494.005615 
	C583.337769,494.000153 583.665955,494.210419 584.102234,494.699097 
z"/>
<path fill="#0F78F8" opacity="1.000000" stroke="none" 
	d="
M592.039429,503.719299 
	C591.872742,503.735748 591.615845,503.471313 591.191650,502.985168 
	C591.332642,502.988495 591.640930,503.213440 592.039429,503.719299 
z"/>
<path fill="#0F78F8" opacity="1.000000" stroke="none" 
	d="
M592.942200,504.747742 
	C592.759705,504.771301 592.531860,504.522980 592.155029,504.068970 
	C592.302979,504.067505 592.599915,504.271698 592.942200,504.747742 
z"/>
<path fill="#0B74F8" opacity="1.000000" stroke="none" 
	d="
M553.401123,645.269165 
	C553.349670,645.072205 553.601990,644.754211 554.070618,644.221191 
	C554.092896,644.386780 553.898926,644.767395 553.401123,645.269165 
z"/>
<path fill="#0F78F8" opacity="1.000000" stroke="none" 
	d="
M583.106140,493.713135 
	C582.937439,493.731903 582.667542,493.473419 582.230286,492.990784 
	C582.376953,492.989716 582.690918,493.212799 583.106140,493.713135 
z"/>
<path fill="#0F78F8" opacity="1.000000" stroke="none" 
	d="
M448.284058,491.577057 
	C448.528778,491.778748 448.453857,491.958069 448.095490,491.997498 
	C447.983704,491.962677 448.136108,491.659821 448.284058,491.577057 
z"/>
<path fill="#0F78F8" opacity="1.000000" stroke="none" 
	d="
M581.089233,491.679077 
	C580.928772,491.715363 580.645691,491.495331 580.177063,491.078552 
	C580.316589,491.062073 580.641602,491.242401 581.089233,491.679077 
z"/>
<path fill="#0F78F8" opacity="1.000000" stroke="none" 
	d="
M580.017456,490.748840 
	C579.862488,490.775360 579.606018,490.547150 579.179688,490.125061 
	C579.311829,490.118835 579.613892,490.306458 580.017456,490.748840 
z"/>
<path fill="#0F78F8" opacity="1.000000" stroke="none" 
	d="
M585.126587,495.687073 
	C584.952637,495.718201 584.667603,495.469238 584.194519,495.006409 
	C584.342834,494.997375 584.679199,495.202209 585.126587,495.687073 
z"/>
<path fill="#0F78F8" opacity="1.000000" stroke="none" 
	d="
M457.693115,484.895508 
	C457.689728,485.056854 457.387909,485.301208 456.828186,485.686279 
	C456.845093,485.544220 457.119904,485.261383 457.693115,484.895508 
z"/>
<path fill="#0B74F8" opacity="1.000000" stroke="none" 
	d="
M554.304321,644.174072 
	C554.276367,643.987671 554.541565,643.707947 555.029297,643.244141 
	C555.033813,643.400330 554.815674,643.740540 554.304321,644.174072 
z"/>
<path fill="#1486F9" opacity="1.000000" stroke="none" 
	d="
M676.359314,432.239441 
	C676.184998,432.109894 676.196167,431.735992 676.314575,430.809845 
	C676.462830,430.836761 676.503784,431.415924 676.359314,432.239441 
z"/>
</svg>